<svg version="1" xmlns="http://www.w3.org/2000/svg" width="682.667" height="682.667" viewBox="0 0 512.000000 512.000000"><path d="M234.8 14.5c-.2.1-3.1.6-6.6.9-6.4.7-13.4 2.7-18.3 5.2-13.4 6.8-24.3 42.9-24.3 79.9.1 25.4 5.1 38 18 45.2 9.5 5.2 28.2 4.3 43.1-2.2 6.4-2.9 15.4-9 21.1-14.4 5.3-5.2 7.5-5.2 17.8-.3 14.7 7.2 22.6 9.3 35 9.6l6.9.1 1.1 3.5c2.1 6.4 2.7 16.1 2.9 52.5.3 45.1 1.5 60.5 5.4 75.6l1.8 6.7-7.1-3c-24-9.9-44.1-13.8-67.6-13.3-11.5.3-17.3.8-22.5 2-.5.1-2.8.5-5 .9-20.5 3.9-42.4 14.4-64.3 30.6-2.3 1.7-3.7 2.1-4.6 1.5-17.3-12.7-30.7-19.7-46.1-24.1-21.4-6.2-43.9-4.6-64.3 4.7C29 288.8 10.1 314.7 2.4 351c-2.6 11.9-2.6 41 0 53 8.4 39.6 30.8 67.7 62.5 78.5C79 487.3 101 491.4 127 494c5.8.6 12.1 1.3 14.1 1.5 9.2 1 39.8 2 64.4 2 50.2-.1 77.1-2.7 97.5-9.5 12.7-4.2 39.1-14.7 51.3-20.4 4.3-2 8.1-3.6 8.3-3.6 1.4 0 43.7-21.7 55.4-28.5 54.3-31.2 86.5-63.1 92.6-91.7 2-9.2 1.3-24.9-1.6-36.3-1.2-4.4-2.5-9.6-3-11.5-6.6-25.7-33.5-80.8-60.7-124.4-9.9-15.7-28.7-43.9-33.5-50.1-.5-.6-4.7-6.1-9.4-12.4-31.4-41.8-58.6-68.7-79.2-78.3-19.2-8.9-50.2-15.6-74.8-16.3-7.3-.2-13.4-.2-13.6 0z"/><path d="M73 119.4c-7.4 2.2-9.3 3.2-14.2 7.6-12.8 11.3-15.7 33.6-6.6 51.4 7.6 15 27 33.1 47.4 44.3 7.4 4.1 8.7 3.9 19.4-2.6 35.8-21.5 52.6-47.7 47.3-73.5-2.4-12-8.6-20.1-19.3-25.4-4.9-2.4-6.6-2.7-15.5-2.7-10.4.1-13.8 1.1-21.8 6.7l-2.8 2-3.2-2.4c-7.5-5.6-21.7-8.1-30.7-5.4z"/></svg>